<svg width="107" height="103" viewBox="0 0 107 103" fill="none" xmlns="http://www.w3.org/2000/svg">
<path d="M58.4498 34.5395L36.1462 43.8733L25.2844 84.4104L62.2365 94.3117L73.0984 53.7746L58.4498 34.5395ZM58.4498 34.5395L64.6566 11.3755M64.6566 11.3755L62.8816 18.0001L53.5002 16L55.4532 9.5L64.6566 11.3755ZM48.9328 70.0576L43.7605 89.3609M43.7605 89.3609L1.88145 78.1395M43.7605 89.3609L85.6396 100.582M33.56 53.5249L21.2426 50.2245C20.1537 49.9327 19.0004 50.0596 18.0364 50.5773C17.0724 51.095 16.3767 51.9611 16.1023 52.985L8.8611 80.0097M70.5123 63.4263L82.8297 66.7267C83.9186 67.0185 84.854 67.705 85.4299 68.6354C86.0059 69.5657 86.1754 70.6636 85.901 71.6875L78.6598 98.7122M45.6485 10.8123L43.1485 17.3123L52.3392 19.3123L54.4767 12.75L45.6485 10.8123Z" stroke="white" stroke-opacity="0.5" stroke-width="3" stroke-linecap="round" stroke-linejoin="round"/>
</svg>
