<svg width="101" height="101" viewBox="0 0 101 101" fill="none" xmlns="http://www.w3.org/2000/svg">
<path d="M68.3741 18.3539L68.5797 16.8681C68.1519 16.8088 67.7193 16.9369 67.3927 17.2195L68.3741 18.3539ZM99.2038 22.6215L100.593 23.1866C100.768 22.7578 100.734 22.2725 100.503 21.8716C100.272 21.4707 99.868 21.1991 99.4095 21.1357L99.2038 22.6215ZM87.4885 51.428L87.9791 52.8455C88.3875 52.7041 88.7151 52.3935 88.878 51.9931L87.4885 51.428ZM19.2079 75.0609L17.9092 75.8115C18.2688 76.4338 19.0193 76.7135 19.6985 76.4784L19.2079 75.0609ZM13.7466 65.6112L12.7652 64.4768C12.221 64.9476 12.0878 65.7386 12.4479 66.3617L13.7466 65.6112ZM8.21873 53.0484C7.80421 52.3312 6.88672 52.0858 6.16946 52.5003C5.4522 52.9148 5.20678 53.8323 5.6213 54.5496L8.21873 53.0484ZM24.7357 87.6237C25.1502 88.341 26.0677 88.5864 26.785 88.1719C27.5023 87.7573 27.7477 86.8398 27.3331 86.1226L24.7357 87.6237ZM17.2267 71.6354C17.9443 71.2215 18.1905 70.3043 17.7766 69.5866C17.3627 68.869 16.4454 68.6228 15.7278 69.0367L17.2267 71.6354ZM1.54609 77.2164C0.828467 77.6303 0.582258 78.5475 0.996162 79.2652C1.41007 79.9828 2.32734 80.229 3.04496 79.8151L1.54609 77.2164ZM18.503 32.9435L17.0171 32.7381C16.958 33.1662 17.0863 33.5991 17.3694 33.9257L18.503 32.9435ZM22.7605 2.1386L23.3253 0.74899C22.8965 0.574699 22.4112 0.608152 22.0104 0.839638C21.6095 1.07112 21.338 1.47471 21.2746 1.93324L22.7605 2.1386ZM51.5936 13.8576L53.0107 13.3659C52.8692 12.9578 52.5586 12.6306 52.1584 12.468L51.5936 13.8576ZM75.2738 82.0974L76.0232 83.3967C76.6466 83.0372 76.9268 82.2855 76.6909 81.6056L75.2738 82.0974ZM65.8193 87.5505L64.6857 88.5328C65.1563 89.0759 65.9461 89.2089 66.5687 88.8498L65.8193 87.5505ZM55.2514 28.9739C55.523 29.7565 56.3776 30.1708 57.1603 29.8992C57.9429 29.6276 58.3572 28.773 58.0856 27.9903L55.2514 28.9739ZM30.6951 49.3047C31.2376 49.9308 32.1849 49.9986 32.811 49.4561C33.4371 48.9136 33.5049 47.9663 32.9624 47.3402L30.6951 49.3047ZM68.6278 58.3701C68.3562 57.5875 67.5016 57.1732 66.719 57.4448C65.9363 57.7164 65.522 58.571 65.7936 59.3536L68.6278 58.3701ZM47.8746 64.5501C47.3321 63.9241 46.3847 63.8563 45.7587 64.3988C45.1326 64.9413 45.0648 65.8886 45.6073 66.5147L47.8746 64.5501ZM53.2518 93.0675C52.5342 93.4814 52.288 94.3987 52.7019 95.1163C53.1158 95.8339 54.033 96.0801 54.7507 95.6662L53.2518 93.0675ZM87.8413 76.5804C88.5589 76.1665 88.8051 75.2492 88.3912 74.5316C87.9773 73.814 87.06 73.5678 86.3424 73.9817L87.8413 76.5804ZM71.8453 84.0734C71.4307 83.3561 70.5132 83.1107 69.796 83.5252C69.0787 83.9397 68.8333 84.8572 69.2478 85.5745L71.8453 84.0734ZM77.4397 99.7491C77.8542 100.466 78.7717 100.712 79.489 100.297C80.2062 99.8827 80.4517 98.9652 80.0371 98.248L77.4397 99.7491ZM68.1684 19.8397L98.9981 24.1073L99.4095 21.1357L68.5797 16.8681L68.1684 19.8397ZM97.8143 22.0564L86.099 50.8629L88.878 51.9931L100.593 23.1866L97.8143 22.0564ZM86.9979 50.0105L18.7173 73.6434L19.6985 76.4784L87.9791 52.8455L86.9979 50.0105ZM20.5066 74.3104L15.0453 64.8606L12.4479 66.3617L17.9092 75.8115L20.5066 74.3104ZM14.728 66.7456L69.3554 19.4883L67.3927 17.2195L12.7652 64.4768L14.728 66.7456ZM5.6213 54.5496L24.7357 87.6237L27.3331 86.1226L8.21873 53.0484L5.6213 54.5496ZM15.7278 69.0367L1.54609 77.2164L3.04496 79.8151L17.2267 71.6354L15.7278 69.0367ZM19.9889 33.1488L24.2464 2.34396L21.2746 1.93324L17.0171 32.7381L19.9889 33.1488ZM22.1957 3.5282L51.0289 15.2472L52.1584 12.468L23.3253 0.74899L22.1957 3.5282ZM74.5243 80.798L65.0699 86.2511L66.5687 88.8498L76.0232 83.3967L74.5243 80.798ZM50.1765 14.3494L55.2514 28.9739L58.0856 27.9903L53.0107 13.3659L50.1765 14.3494ZM32.9624 47.3402L19.6366 31.9612L17.3694 33.9257L30.6951 49.3047L32.9624 47.3402ZM65.7936 59.3536L73.8567 82.5891L76.6909 81.6056L68.6278 58.3701L65.7936 59.3536ZM66.9529 86.5682L47.8746 64.5501L45.6073 66.5147L64.6857 88.5328L66.9529 86.5682ZM54.7507 95.6662L87.8413 76.5804L86.3424 73.9817L53.2518 93.0675L54.7507 95.6662ZM69.2478 85.5745L77.4397 99.7491L80.0371 98.248L71.8453 84.0734L69.2478 85.5745Z" fill="white" fill-opacity="0.5"/>
</svg>
