<svg width="108" height="114" viewBox="0 0 108 114" fill="none" xmlns="http://www.w3.org/2000/svg">
<path d="M86.2609 52.4008L87.7485 52.2083C87.6846 51.7148 87.3802 51.2851 86.9357 51.0612C86.4913 50.8373 85.9647 50.8484 85.5301 51.0909L86.2609 52.4008ZM73.8181 35.5807L72.3204 35.4963L72.3204 35.4964L73.8181 35.5807ZM65.9057 12.0699L67.1227 11.1929C66.8058 10.7533 66.2765 10.5187 65.738 10.5794C65.1994 10.64 64.7355 10.9864 64.5243 11.4854L65.9057 12.0699ZM54.3482 30.4816L55.2812 31.6562L55.2819 31.6556L54.3482 30.4816ZM14.8107 52.5494L13.4432 51.9329L13.4431 51.933L14.8107 52.5494ZM49.2015 54.4081L50.5892 54.9777C50.8009 54.462 50.7091 53.8715 50.351 53.4444C49.9929 53.0172 49.4274 52.8239 48.8827 52.9424L49.2015 54.4081ZM28.9184 67.6469L30.3349 68.1404L30.335 68.1399L28.9184 67.6469ZM31.7448 80.0945L30.6773 81.1483L30.6788 81.1498L31.7448 80.0945ZM42.3041 83.4188L42.0001 81.95L41.9998 81.95L42.3041 83.4188ZM46.9706 68.3162L48.4335 67.9844L48.4332 67.9833L46.9706 68.3162ZM28.7645 96.2815C36.682 100.853 45.4918 105.323 54.25 105.309C63.2272 105.296 71.7904 100.598 79.2004 87.7632L76.6023 86.2632C69.5785 98.4287 61.8848 102.298 54.2454 102.309C46.3869 102.322 38.2201 98.2766 30.2645 93.6835L28.7645 96.2815ZM79.2004 87.7632C86.3138 75.4424 89.2195 63.5745 87.7485 52.2083L84.7733 52.5934C86.1397 63.1511 83.4749 74.3596 76.6023 86.2632L79.2004 87.7632ZM85.5301 51.0909C80.2205 54.0529 75.9823 56.0463 72.7878 57.1144C71.1896 57.6487 69.908 57.9323 68.9176 58.0083C67.9098 58.0856 67.3495 57.9368 67.0626 57.7711L65.5626 60.3692C66.5851 60.9596 67.8379 61.0999 69.147 60.9995C70.4736 60.8977 72.0127 60.5367 73.7391 59.9596C77.1937 58.8046 81.6202 56.7073 86.9917 53.7108L85.5301 51.0909ZM67.0626 57.7711C66.9586 57.7112 66.9698 57.7013 66.9617 57.6507C66.9378 57.5004 66.9535 57.1665 67.1586 56.5534C67.5722 55.3168 68.4816 53.6909 69.6597 51.559C71.9272 47.4558 74.9666 41.8659 75.3157 35.665L72.3204 35.4964C72.0152 40.9183 69.3378 45.9391 67.034 50.108C65.9265 52.1121 64.8367 54.0375 64.3135 55.6018C64.0502 56.3891 63.8631 57.268 63.999 58.1222C64.1508 59.076 64.6844 59.8622 65.5626 60.3692L67.0626 57.7711ZM75.3157 35.6651C75.7765 27.4911 72.9812 19.3222 67.1227 11.1929L64.6888 12.9469C70.2519 20.6662 72.7334 28.1707 72.3204 35.4963L75.3157 35.6651ZM64.5243 11.4854C60.618 20.7177 56.8854 26.5473 53.4146 29.3076L55.2819 31.6556C59.382 28.3948 63.3536 21.9512 67.2872 12.6544L64.5243 11.4854ZM53.4152 29.3071C52.9031 29.7139 52.0727 30.1249 50.8667 30.5468C49.6796 30.9621 48.2426 31.3502 46.5901 31.7621C43.324 32.5762 39.2601 33.4695 35.1326 34.804C26.8711 37.475 17.9002 42.0468 13.4432 51.9329L16.1781 53.1658C20.1089 44.4469 28.0657 40.2417 36.0555 37.6585C40.0536 36.3659 43.9463 35.5128 47.3156 34.6731C48.9808 34.258 50.5313 33.8424 51.8573 33.3785C53.1644 32.9213 54.3729 32.3777 55.2812 31.6562L53.4152 29.3071ZM13.4431 51.933C9.11646 61.5329 8.75651 70.269 11.6644 77.8438C14.5613 85.3896 20.6231 91.5811 28.7645 96.2815L30.2645 93.6835C22.531 89.2185 17.048 83.4964 14.4652 76.7686C11.8935 70.0697 12.1191 62.1719 16.1782 53.1657L13.4431 51.933ZM48.8827 52.9424C37.4374 55.4321 29.9849 60.0186 27.5017 67.1539L30.335 68.1399C32.2834 62.5415 38.3543 58.3028 49.5204 55.8738L48.8827 52.9424ZM27.5019 67.1534C25.35 73.3297 28.0318 78.4685 30.6773 81.1483L32.8123 79.0407C30.7102 76.9115 28.6675 72.9261 30.3349 68.1404L27.5019 67.1534ZM30.6788 81.1498C32.7067 83.1983 36.7883 86.0935 42.6085 84.8876L41.9998 81.95C37.5738 82.867 34.4686 80.7139 32.8108 79.0392L30.6788 81.1498ZM42.6082 84.8877C44.1934 84.5596 45.5501 83.9027 46.6269 82.8887C47.7021 81.8763 48.4219 80.5798 48.8484 79.09C49.6857 76.1651 49.4285 72.3706 48.4335 67.9844L45.5078 68.6481C46.4674 72.878 46.5916 76.0729 45.9642 78.2644C45.6584 79.3328 45.1845 80.1262 44.5703 80.7046C43.9578 81.2814 43.1295 81.7162 42.0001 81.95L42.6082 84.8877ZM48.4332 67.9833C47.7058 64.7874 48.3245 60.4945 50.5892 54.9777L47.8139 53.8384C45.4504 59.596 44.581 64.5765 45.508 68.6491L48.4332 67.9833Z" fill="white" fill-opacity="0.5"/>
</svg>
