<svg width="1920" height="2459" viewBox="0 0 1920 2459" fill="none" xmlns="http://www.w3.org/2000/svg">
<rect width="1920" height="2459" fill="#141414"/>
<g clip-path="url(#clip0_454_1569)">
<g opacity="0.5">
<path d="M1829.02 1281.46C1839.17 1271.71 1854.92 1284.38 1847.56 1296.39L1845.25 1300.16C1841.11 1306.91 1844.53 1315.75 1852.14 1317.96L1856.39 1319.19C1869.92 1323.1 1866.81 1343.08 1852.74 1342.71L1848.32 1342.59C1840.4 1342.38 1834.45 1349.77 1836.35 1357.46L1837.41 1361.76C1840.78 1375.43 1821.92 1382.73 1815.21 1370.36L1813.1 1366.47C1809.32 1359.5 1799.95 1358.05 1794.24 1363.54L1791.05 1366.6C1780.89 1376.36 1765.14 1363.68 1772.5 1351.68L1774.81 1347.91C1778.96 1341.15 1775.53 1332.31 1767.92 1330.11L1763.67 1328.88C1750.15 1324.96 1753.25 1304.98 1767.32 1305.35L1771.75 1305.47C1779.67 1305.68 1785.61 1298.29 1783.72 1290.6L1782.66 1286.3C1779.28 1272.64 1798.14 1265.33 1804.85 1277.71L1806.96 1281.6C1810.74 1288.56 1820.11 1290.02 1825.83 1284.53L1829.02 1281.46Z" stroke="#404040" stroke-width="8"/>
<path d="M1892.01 1176.17C1916.66 1158.75 1948.7 1184.54 1936.95 1212.35L1916.67 1260.35C1910.37 1275.27 1917.04 1292.49 1931.75 1299.27L1979.07 1321.09C2006.48 1333.73 2000.16 1374.38 1970.21 1378.11L1918.5 1384.55C1902.43 1386.55 1890.85 1400.94 1892.33 1417.06L1897.09 1468.96C1899.85 1499.01 1861.5 1513.86 1843.29 1489.79L1811.86 1448.23C1802.09 1435.31 1783.84 1432.48 1770.62 1441.82L1728.05 1471.89C1703.4 1489.31 1671.36 1463.52 1683.11 1435.72L1703.39 1387.71C1709.69 1372.79 1703.02 1355.57 1688.32 1348.79L1640.99 1326.97C1613.58 1314.33 1619.9 1273.68 1649.85 1269.95L1701.56 1263.51C1717.63 1261.51 1729.21 1247.13 1727.73 1231L1722.97 1179.11C1720.21 1149.05 1758.57 1134.2 1776.77 1158.27L1808.21 1199.84C1817.97 1212.75 1836.22 1215.59 1849.45 1206.24L1892.01 1176.17Z" stroke="#404040" stroke-opacity="0.75" stroke-width="4"/>
<path d="M1929.69 1077.21C1982.27 1040.06 2050.63 1095.08 2025.57 1154.39L2006.16 1200.34C1992.72 1232.15 2006.95 1268.89 2038.31 1283.36L2083.61 1304.25C2142.08 1331.21 2128.61 1417.92 2064.72 1425.87L2015.22 1432.04C1980.95 1436.31 1956.24 1467 1959.4 1501.39L1963.95 1551.06C1969.84 1615.18 1888.01 1646.87 1849.17 1595.52L1819.09 1555.73C1798.26 1528.18 1759.32 1522.14 1731.11 1542.07L1690.38 1570.85C1637.79 1608 1569.43 1552.98 1594.49 1493.67L1613.9 1447.73C1627.34 1415.91 1613.11 1379.17 1581.75 1364.7L1536.45 1343.82C1477.98 1316.85 1491.45 1230.15 1555.35 1222.19L1604.84 1216.02C1639.12 1211.76 1663.82 1181.06 1660.67 1146.67L1656.11 1097C1650.23 1032.88 1732.05 1001.19 1770.89 1052.55L1800.97 1092.33C1821.81 1119.88 1860.74 1125.93 1888.95 1106L1929.69 1077.21Z" stroke="#404040" stroke-opacity="0.5" stroke-width="2"/>
<path d="M-12.5468 1226.14C-9.30524 1219.7 0.457087 1223.4 -1.38707 1230.37L-4.70888 1242.92C-6.08102 1248.11 -0.477927 1252.35 4.14159 1249.62L15.3249 1243.02C21.5335 1239.36 27.7444 1247.75 22.4249 1252.62L12.843 1261.38C8.88494 1265 11.3048 1271.6 16.6652 1271.8L29.6424 1272.3C36.8469 1272.57 37.5345 1282.99 30.4284 1284.21L17.6285 1286.4C12.3413 1287.31 10.8095 1294.17 15.2091 1297.23L25.8599 1304.66C31.7728 1308.79 26.7188 1317.93 20.0823 1315.11L8.12839 1310.03C3.19057 1307.94 -1.80637 1312.88 0.235383 1317.84L5.17827 1329.85C7.92238 1336.52 -1.26869 1341.47 -5.32845 1335.51L-12.6412 1324.78C-15.6618 1320.35 -22.5375 1321.8 -23.5018 1327.08L-25.8361 1339.86C-27.1321 1346.95 -37.5421 1346.15 -37.7362 1338.94L-38.086 1325.96C-38.2305 1320.59 -44.8019 1318.1 -48.466 1322.02L-57.3365 1331.5C-62.2611 1336.77 -70.5848 1330.47 -66.8518 1324.3L-60.1275 1313.19C-57.3499 1308.6 -61.5307 1302.95 -66.7314 1304.27L-79.3216 1307.45C-86.3113 1309.22 -89.9062 1299.41 -83.4311 1296.24L-71.7677 1290.53C-66.9499 1288.17 -67.4127 1281.16 -72.4987 1279.46L-84.8115 1275.33C-91.6471 1273.03 -89.3717 1262.84 -82.2104 1263.68L-69.3109 1265.18C-63.9825 1265.8 -60.5804 1259.65 -63.937 1255.47L-72.063 1245.34C-76.5743 1239.71 -69.151 1232.37 -63.5772 1236.94L-53.5371 1245.18C-49.3899 1248.58 -43.2029 1245.25 -43.7644 1239.91L-45.1238 1227C-45.8784 1219.83 -35.6641 1217.66 -33.4474 1224.52L-29.4544 1236.88C-27.805 1241.99 -20.7976 1242.53 -18.3857 1237.73L-12.5468 1226.14Z" fill="#404040" stroke="#404040" stroke-width="8"/>
<path d="M-1.39672 1158.89C11.9377 1149.43 30.6101 1156.51 34.3157 1172.44L37.3748 1185.58C39.6418 1195.33 47.9461 1202.49 57.9164 1203.3L71.3701 1204.39C87.6675 1205.71 97.4193 1223.14 90.0213 1237.72L83.9142 1249.76C79.3883 1258.68 81.1471 1269.5 88.2649 1276.53L97.8694 1286.01C109.504 1297.5 105.772 1317.12 90.7323 1323.53L78.3166 1328.83C69.1154 1332.75 63.5058 1342.17 64.4405 1352.13L65.7018 1365.57C67.2297 1381.85 51.7605 1394.48 36.1159 1389.73L23.201 1385.8C13.63 1382.9 3.27676 1386.51 -2.40894 1394.74L-10.081 1405.84C-19.3748 1419.3 -39.3432 1419.03 -48.2722 1405.33L-55.6432 1394.02C-61.1058 1385.64 -71.3582 1381.75 -81.0039 1384.4L-94.0196 1387.98C-109.786 1392.31 -124.911 1379.27 -122.946 1363.04L-121.324 1349.64C-120.122 1339.71 -125.477 1330.14 -134.569 1325.97L-146.838 1320.34C-161.7 1313.53 -164.904 1293.81 -152.965 1282.64L-143.109 1273.42C-135.805 1266.58 -133.756 1255.81 -138.04 1246.77L-143.822 1234.58C-150.826 1219.8 -140.609 1202.64 -124.282 1201.76L-110.804 1201.03C-100.815 1200.49 -92.3218 1193.55 -89.7938 1183.87L-86.3827 1170.82C-82.2506 1155 -63.3946 1148.42 -50.3193 1158.24L-39.5254 1166.34C-31.5262 1172.35 -20.5621 1172.49 -12.4044 1166.7L-1.39672 1158.89Z" stroke="#404040" stroke-opacity="0.75" stroke-width="4"/>
<path d="M71.2052 984.245C80.4082 977.926 93.0909 982.736 95.7885 993.569L121.08 1095.13C122.717 1101.71 128.32 1106.54 135.066 1107.19L239.247 1117.27C250.36 1118.34 256.983 1130.18 252.086 1140.21L206.175 1234.27C203.202 1240.36 204.389 1247.66 209.137 1252.5L282.471 1327.18C290.293 1335.15 287.758 1348.47 277.558 1353.01L181.927 1395.56C175.735 1398.31 171.95 1404.67 172.479 1411.42L180.65 1515.77C181.522 1526.9 171.015 1535.48 160.284 1532.4L59.68 1503.52C53.1661 1501.65 46.1806 1504.09 42.243 1509.6L-18.5709 1594.79C-25.0574 1603.88 -38.6203 1603.69 -44.8604 1594.44L-103.364 1507.65C-107.152 1502.03 -114.069 1499.4 -120.631 1501.1L-221.975 1527.26C-232.785 1530.05 -243.057 1521.2 -241.887 1510.09L-230.915 1406C-230.205 1399.26 -233.817 1392.81 -239.933 1389.89L-334.387 1344.79C-344.462 1339.98 -346.637 1326.59 -338.604 1318.84L-263.291 1246.15C-258.415 1241.45 -257.032 1234.18 -259.84 1228.01L-303.208 1132.75C-307.834 1122.59 -300.895 1110.94 -289.758 1110.16L-185.343 1102.89C-178.582 1102.42 -172.851 1097.74 -171.038 1091.21L-143.027 990.36C-140.04 979.604 -127.232 975.136 -118.202 981.701L-33.5429 1043.25C-28.0614 1047.23 -20.6638 1047.33 -15.0771 1043.5L71.2052 984.245Z" stroke="#404040" stroke-opacity="0.75" stroke-width="4"/>
</g>
</g>
<defs>
<clipPath id="clip0_454_1569">
<rect width="1920" height="665" fill="white" transform="translate(0 968)"/>
</clipPath>
</defs>
</svg>
